<svg width="36" height="36" viewBox="0 0 36 36" fill="none" xmlns="http://www.w3.org/2000/svg">
<path d="M18.0602 3.00008C9.8702 3.00008 3.1952 9.67508 3.1952 17.8651C3.1952 20.4901 3.8852 23.0401 5.1752 25.2901L3.0752 33.0001L10.9502 30.9301C13.1252 32.1151 15.5702 32.7451 18.0602 32.7451C26.2502 32.7451 32.9252 26.0701 32.9252 17.8801C32.9252 13.9051 31.3802 10.1701 28.5752 7.36508C27.1998 5.97624 25.5617 4.87503 23.7565 4.12562C21.9512 3.37622 20.0148 2.99361 18.0602 3.00008ZM18.0752 5.50508C21.3752 5.50508 24.4652 6.79508 26.8052 9.13508C27.9533 10.2834 28.8635 11.6468 29.4839 13.1475C30.1042 14.6481 30.4224 16.2563 30.4202 17.8801C30.4202 24.6901 24.8702 30.2251 18.0602 30.2251C15.8402 30.2251 13.6652 29.6401 11.7752 28.5001L11.3252 28.2451L6.6452 29.4751L7.8902 24.9151L7.5902 24.4351C6.35202 22.4677 5.6967 20.1897 5.7002 17.8651C5.7152 11.0551 11.2502 5.50508 18.0752 5.50508ZM12.7952 10.9951C12.5552 10.9951 12.1502 11.0851 11.8052 11.4601C11.4752 11.8351 10.5002 12.7501 10.5002 14.5651C10.5002 16.3951 11.8352 18.1501 12.0002 18.4051C12.2102 18.6601 14.6402 22.4101 18.3752 24.0001C19.2602 24.4051 19.9502 24.6301 20.4902 24.7951C21.3752 25.0801 22.1852 25.0351 22.8302 24.9451C23.5502 24.8401 25.0202 24.0451 25.3352 23.1751C25.6502 22.3051 25.6502 21.5701 25.5602 21.4051C25.4552 21.2551 25.2152 21.1651 24.8402 21.0001C24.4652 20.7901 22.6352 19.8901 22.3052 19.7701C21.9602 19.6501 21.7502 19.5901 21.4652 19.9501C21.2252 20.3251 20.5052 21.1651 20.2952 21.4051C20.0702 21.6601 19.8602 21.6901 19.5002 21.5101C19.1102 21.3151 17.9102 20.9251 16.5002 19.6651C15.3902 18.6751 14.6552 17.4601 14.4302 17.0851C14.2502 16.7251 14.4152 16.5001 14.5952 16.3351C14.7602 16.1701 15.0002 15.9001 15.1502 15.6751C15.3452 15.4651 15.4052 15.3001 15.5252 15.0601C15.6452 14.8051 15.5852 14.5951 15.4952 14.4151C15.4052 14.2501 14.6552 12.3901 14.3402 11.6551C14.0402 10.9351 13.7402 11.0251 13.5002 11.0101C13.2902 11.0101 13.0502 10.9951 12.7952 10.9951Z" fill="#D7B189"/>
</svg>
