<svg width="36" height="36" viewBox="0 0 36 36" fill="none" xmlns="http://www.w3.org/2000/svg">
<path d="M18 3.05957C9.75 3.05957 3 9.79457 3 18.0896C3 25.5896 8.49 31.8146 15.66 32.9396V22.4396H11.85V18.0896H15.66V14.7746C15.66 11.0096 17.895 8.93957 21.33 8.93957C22.965 8.93957 24.675 9.22457 24.675 9.22457V12.9296H22.785C20.925 12.9296 20.34 14.0846 20.34 15.2696V18.0896H24.51L23.835 22.4396H20.34V32.9396C23.8747 32.3813 27.0933 30.5778 29.4149 27.8547C31.7365 25.1315 33.008 21.668 33 18.0896C33 9.79457 26.25 3.05957 18 3.05957Z" fill="#D7B189"/>
</svg>
