<svg width="86" height="86" viewBox="0 0 86 86" fill="none" xmlns="http://www.w3.org/2000/svg">
<path fill-rule="evenodd" clip-rule="evenodd" d="M48.9506 27.1418L37.8143 15.2861C36.1978 13.5655 37.4178 10.7484 39.7777 10.7484H71.7476C73.6827 10.7484 75.2495 12.3173 75.2495 14.2503V47.3947C75.2495 49.8001 72.3348 51.0006 70.6424 49.2908L60.1671 38.7223L48.9506 27.1396V27.1418ZM80.4698 0H5.53021C2.47689 0 0 2.47473 0 5.53022V80.4698C0 83.5231 2.47472 86 5.53021 86H80.4698C83.5231 86 86 83.5253 86 80.4698V5.53022C86 2.4769 83.5253 0 80.4698 0Z" fill="url(#paint0_linear_8639_2287)"/>
<path d="M10.75 56.5005H17.3117C20.04 56.5005 21.8949 58.3966 21.8949 61.3958C21.8949 64.3949 20.04 66.2911 17.3117 66.2911H13.4588V71.0823H10.75V56.5005ZM17.2077 63.6863C18.3735 63.6863 19.1862 62.8737 19.1862 61.3958C19.1862 59.9179 18.3735 59.1052 17.2077 59.1052H13.4588V63.6885H17.2077V63.6863Z" fill="white"/>
<path d="M23.2502 60.4583H25.4367L25.6448 61.3966H25.7488C25.8745 61.2297 26.0197 61.0845 26.2082 60.9393C26.5202 60.7096 26.9796 60.4604 27.6232 60.4604H29.7057V62.9611H27.8313C26.5181 62.9611 25.8528 63.6286 25.8528 64.9396V71.0853H23.248V60.4626L23.2502 60.4583Z" fill="white"/>
<path d="M41.1647 65.7677C41.1647 68.9965 38.8742 71.287 35.7493 71.287C32.6245 71.287 30.334 68.9965 30.334 65.7677C30.334 62.5388 32.6245 60.2483 35.7493 60.2483C38.8742 60.2483 41.1647 62.5388 41.1647 65.7677ZM38.5621 65.7677C38.5621 63.8932 37.3118 62.6428 35.7493 62.6428C34.1869 62.6428 32.9366 63.8932 32.9366 65.7677C32.9366 67.6421 34.1869 68.8925 35.7493 68.8925C37.3118 68.8925 38.5621 67.6421 38.5621 65.7677Z" fill="white"/>
<path d="M42.5192 60.4563H44.9138L45.1218 61.6027H45.2258C45.4122 61.3535 45.6636 61.1238 45.9539 60.9352C46.4545 60.6015 47.1826 60.2483 48.2445 60.2483C50.9532 60.2483 53.1397 62.4348 53.1397 65.7677C53.1397 69.1005 50.9532 71.287 48.2445 71.287C47.1393 71.287 46.3895 70.975 45.9106 70.6629C45.6397 70.4744 45.41 70.2664 45.2237 70.0388H45.1196V75.2462H42.5149V60.4563H42.5192ZM47.8327 62.6428C46.2486 62.6428 45.124 63.7675 45.124 65.7677C45.124 67.7678 46.2486 68.8925 47.8327 68.8925C49.4168 68.8925 50.5415 67.7678 50.5415 65.7677C50.5415 63.7675 49.4168 62.6428 47.8327 62.6428Z" fill="white"/>
<path d="M54.3945 56.2927H57.2073V58.7935H54.3945V56.2927ZM54.4985 60.4577H57.1033V71.0804H54.4985V60.4577Z" fill="white"/>
<path d="M60.3317 62.9584H58.5613V60.4577H60.3317V58.8953C60.3317 57.3112 61.3524 56.2905 62.9365 56.2905H65.227V58.5811H63.6646C63.2485 58.5811 62.9365 58.8931 62.9365 59.3092V60.4555H65.227V62.9563H62.9365V71.0804H60.3317V62.9563V62.9584Z" fill="white"/>
<path d="M65.3314 72.8536H67.4139C67.934 72.8536 68.1009 72.6455 68.2049 72.3335L68.3934 71.8134L64.0811 60.4604H66.7898L69.4986 67.6463H69.9146L72.4154 60.4604H75.1241L70.6449 73.1678C70.1443 74.6262 69.4791 75.2503 67.5201 75.2503H65.3336V72.8558L65.3314 72.8536Z" fill="white"/>
<defs>
<linearGradient id="paint0_linear_8639_2287" x1="13.6717" y1="95.4785" x2="111.662" y2="-79.8695" gradientUnits="userSpaceOnUse">
<stop stop-color="#541513"/>
<stop offset="0.08" stop-color="#8D5027"/>
<stop offset="0.38" stop-color="#CB9552"/>
<stop offset="0.56" stop-color="#FFF2DB"/>
<stop offset="0.8" stop-color="#D7B189"/>
<stop offset="0.92" stop-color="#AB6B2D"/>
<stop offset="0.96" stop-color="#9C530D"/>
</linearGradient>
</defs>
</svg>
