<svg width="88" height="13" viewBox="0 0 88 13" fill="none" xmlns="http://www.w3.org/2000/svg">
<path d="M1.73554 12.6504L0 0.349609H3.10076L4.19239 10.5418H4.64009L6.2264 0.349609H11.2368L12.8231 10.5418H13.2708L14.3624 0.349609H17.4632L15.7277 12.6504H10.5431L8.95684 2.45824H8.50914L6.92283 12.6504H1.73831H1.73554Z" fill="#101014" fill-opacity="0.72"/>
<path d="M24.2567 13C23.0324 13 21.9546 12.7402 21.0205 12.2179C20.0864 11.6983 19.3596 10.9605 18.8373 10.0098C18.3177 9.0591 18.0552 7.93984 18.0552 6.64923V6.35076C18.0552 5.06015 18.3122 3.9409 18.8235 2.99022C19.3347 2.03954 20.056 1.30442 20.9818 0.782096C21.9076 0.262539 22.9827 0 24.207 0C25.4312 0 26.4648 0.268065 27.3575 0.806968C28.2501 1.34311 28.9438 2.08929 29.4412 3.03997C29.9359 3.99065 30.1846 5.09332 30.1846 6.35076V7.41751H21.2306C21.2637 8.26041 21.5788 8.94579 22.1729 9.4764C22.7671 10.007 23.4967 10.2696 24.3562 10.2696C25.2157 10.2696 25.8762 10.0789 26.2907 9.70025C26.7025 9.31888 27.0175 8.8988 27.2331 8.43452L29.7867 9.77487C29.5545 10.206 29.2201 10.673 28.7835 11.176C28.3441 11.6818 27.7637 12.1101 27.0341 12.4666C26.3073 12.8231 25.3815 13 24.2567 13ZM21.2554 5.0878H27.0092C26.9429 4.37755 26.6583 3.80548 26.1525 3.37713C25.6468 2.946 24.9918 2.7332 24.1821 2.7332C23.3723 2.7332 22.6704 2.94877 22.1729 3.37713C21.6755 3.80825 21.3715 4.37755 21.2554 5.0878Z" fill="#101014" fill-opacity="0.72"/>
<path d="M53.5449 13.0002C52.6688 13.0002 51.884 12.8482 51.1876 12.5414C50.4939 12.2346 49.9439 11.7897 49.5377 11.2011C49.1314 10.6152 48.9297 9.89939 48.9297 9.05649C48.9297 8.21359 49.1314 7.50612 49.5377 6.93681C49.9439 6.36751 50.5049 5.93638 51.2235 5.64621C51.942 5.35603 52.7656 5.21232 53.6914 5.21232H57.063V4.51866C57.063 3.94107 56.8806 3.46572 56.5185 3.09264C56.1537 2.71955 55.5762 2.53438 54.783 2.53438C53.9898 2.53438 53.4261 2.71126 53.0475 3.06777C52.6661 3.42427 52.4201 3.88302 52.304 4.44404L49.4271 3.47677C49.6261 2.84944 49.9439 2.27461 50.3833 1.75229C50.82 1.23273 51.4086 0.809902 52.1438 0.486561C52.8789 0.163219 53.777 0.00292969 54.8355 0.00292969C56.455 0.00292969 57.7373 0.409178 58.6797 1.21891C59.6221 2.02865 60.0946 3.20318 60.0946 4.73974V9.32733C60.0946 9.82201 60.3268 10.0707 60.7883 10.0707H61.435V12.6492H59.6994C59.0887 12.6492 58.583 12.4999 58.1878 12.2015C57.7898 11.903 57.5936 11.5078 57.5936 11.0104V10.9855H57.1238C57.0574 11.1845 56.9082 11.4442 56.6761 11.7676C56.4439 12.0909 56.0819 12.3756 55.5844 12.6243C55.087 12.873 54.4099 12.9974 53.5504 12.9974L53.5449 13.0002ZM54.0921 10.4687C54.9682 10.4687 55.6839 10.2255 56.2367 9.73634C56.7894 9.24994 57.0685 8.6005 57.0685 7.79077V7.54204H53.918C53.3404 7.54204 52.8844 7.6664 52.5528 7.91512C52.2211 8.16385 52.0553 8.5093 52.0553 8.95701C52.0553 9.40471 52.2294 9.76674 52.5749 10.0486C52.9231 10.3305 53.4261 10.4715 54.0866 10.4715L54.0921 10.4687Z" fill="#101014" fill-opacity="0.72"/>
<path d="M62.3799 12.6504V0.349548H65.4558V1.73964H65.9035C66.0859 1.24496 66.3871 0.880164 66.8099 0.648022C67.2328 0.415879 67.7219 0.299805 68.2857 0.299805H69.7725V3.07722H68.236C67.4428 3.07722 66.7878 3.28726 66.2766 3.71009C65.7625 4.13292 65.5083 4.77961 65.5083 5.65567V12.6504H62.3826H62.3799Z" fill="#101014" fill-opacity="0.72"/>
<path d="M70.7119 12.6504V0.299805H73.8375V4.88739H74.2853L78.3533 0.349548H82.4213L76.7421 6.30235L82.6203 12.6504H78.602L74.288 7.7643H73.8403V12.6504H70.7147H70.7119Z" fill="#101014" fill-opacity="0.72"/>
<path d="M83.7592 2.41956V0.70335H83.1567V0.349609H84.7541V0.70335H84.1516V2.41956H83.762H83.7592Z" fill="#101014" fill-opacity="0.72"/>
<path d="M85.0195 2.41956V0.349609H85.7436L86.1001 2.15424H86.1526L86.5091 0.349609H87.2332V2.41956H86.8546V0.637027H86.8021L86.4483 2.41956H85.8044L85.4507 0.637027H85.3981V2.41956H85.0195Z" fill="#101014" fill-opacity="0.72"/>
<path d="M44.7181 2.85897V12.6504H47.841V4.56687V0.349609H31.4722V4.56687V12.6504H34.5978V2.85897H38.0938V12.6504H41.2194V2.85897H44.7181Z" fill="#101014" fill-opacity="0.72"/>
</svg>
